<mxfile host="app.diagrams.net" modified="2022-10-28T11:23:14.584Z" agent="5.0 (Windows NT 10.0; Win64; x64) AppleWebKit/537.36 (KHTML, like Gecko) Chrome/106.0.0.0 Safari/537.36 Edg/106.0.1370.52" etag="zqkI3-XottSu9_oh1AE7" version="20.5.1" type="github">
  <diagram id="C5RBs43oDa-KdzZeNtuy" name="Page-1">
    <mxGraphModel dx="1038" dy="617" grid="1" gridSize="10" guides="1" tooltips="1" connect="1" arrows="1" fold="1" page="1" pageScale="1" pageWidth="827" pageHeight="1169" math="0" shadow="0">
      <root>
        <mxCell id="WIyWlLk6GJQsqaUBKTNV-0" />
        <mxCell id="WIyWlLk6GJQsqaUBKTNV-1" parent="WIyWlLk6GJQsqaUBKTNV-0" />
        <mxCell id="WIyWlLk6GJQsqaUBKTNV-2" value="" style="rounded=0;html=1;jettySize=auto;orthogonalLoop=1;fontSize=11;endArrow=block;endFill=0;endSize=8;strokeWidth=1;shadow=0;labelBackgroundColor=none;edgeStyle=orthogonalEdgeStyle;" parent="WIyWlLk6GJQsqaUBKTNV-1" source="WIyWlLk6GJQsqaUBKTNV-3" edge="1">
          <mxGeometry relative="1" as="geometry">
            <mxPoint x="220" y="170" as="targetPoint" />
          </mxGeometry>
        </mxCell>
        <mxCell id="WIyWlLk6GJQsqaUBKTNV-3" value="START" style="rounded=1;whiteSpace=wrap;html=1;fontSize=12;glass=0;strokeWidth=1;shadow=0;" parent="WIyWlLk6GJQsqaUBKTNV-1" vertex="1">
          <mxGeometry x="160" y="80" width="120" height="40" as="geometry" />
        </mxCell>
        <mxCell id="WIyWlLk6GJQsqaUBKTNV-8" value="No" style="rounded=0;html=1;jettySize=auto;orthogonalLoop=1;fontSize=11;endArrow=block;endFill=0;endSize=8;strokeWidth=1;shadow=0;labelBackgroundColor=none;edgeStyle=orthogonalEdgeStyle;" parent="WIyWlLk6GJQsqaUBKTNV-1" source="WIyWlLk6GJQsqaUBKTNV-10" edge="1">
          <mxGeometry x="0.3333" y="20" relative="1" as="geometry">
            <mxPoint as="offset" />
            <mxPoint x="220" y="430" as="targetPoint" />
          </mxGeometry>
        </mxCell>
        <mxCell id="WIyWlLk6GJQsqaUBKTNV-9" value="Yes" style="edgeStyle=orthogonalEdgeStyle;rounded=0;html=1;jettySize=auto;orthogonalLoop=1;fontSize=11;endArrow=block;endFill=0;endSize=8;strokeWidth=1;shadow=0;labelBackgroundColor=none;" parent="WIyWlLk6GJQsqaUBKTNV-1" source="WIyWlLk6GJQsqaUBKTNV-10" edge="1">
          <mxGeometry y="10" relative="1" as="geometry">
            <mxPoint as="offset" />
            <mxPoint x="320" y="330" as="targetPoint" />
          </mxGeometry>
        </mxCell>
        <mxCell id="WIyWlLk6GJQsqaUBKTNV-10" value="Punya akun?" style="rhombus;whiteSpace=wrap;html=1;shadow=0;fontFamily=Helvetica;fontSize=12;align=center;strokeWidth=1;spacing=6;spacingTop=-4;" parent="WIyWlLk6GJQsqaUBKTNV-1" vertex="1">
          <mxGeometry x="170" y="290" width="100" height="80" as="geometry" />
        </mxCell>
        <mxCell id="XsyiU6WNCSuXVEIbgxJn-0" value="Masuk ke aplikasi Shoope" style="rounded=0;whiteSpace=wrap;html=1;" vertex="1" parent="WIyWlLk6GJQsqaUBKTNV-1">
          <mxGeometry x="160" y="180" width="120" height="60" as="geometry" />
        </mxCell>
        <mxCell id="XsyiU6WNCSuXVEIbgxJn-2" value="" style="rounded=0;html=1;jettySize=auto;orthogonalLoop=1;fontSize=11;endArrow=block;endFill=0;endSize=8;strokeWidth=1;shadow=0;labelBackgroundColor=none;edgeStyle=orthogonalEdgeStyle;" edge="1" parent="WIyWlLk6GJQsqaUBKTNV-1">
          <mxGeometry relative="1" as="geometry">
            <mxPoint x="219.5" y="240" as="sourcePoint" />
            <mxPoint x="219.5" y="290" as="targetPoint" />
            <Array as="points">
              <mxPoint x="219.5" y="270" />
              <mxPoint x="219.5" y="270" />
            </Array>
          </mxGeometry>
        </mxCell>
        <mxCell id="XsyiU6WNCSuXVEIbgxJn-4" value="Buat akun dulu!" style="rounded=0;whiteSpace=wrap;html=1;" vertex="1" parent="WIyWlLk6GJQsqaUBKTNV-1">
          <mxGeometry x="160" y="440" width="120" height="60" as="geometry" />
        </mxCell>
        <mxCell id="XsyiU6WNCSuXVEIbgxJn-5" value="" style="endArrow=classic;html=1;rounded=0;" edge="1" parent="WIyWlLk6GJQsqaUBKTNV-1">
          <mxGeometry width="50" height="50" relative="1" as="geometry">
            <mxPoint x="219.5" y="500" as="sourcePoint" />
            <mxPoint x="219.5" y="550" as="targetPoint" />
            <Array as="points">
              <mxPoint x="219.5" y="520" />
            </Array>
          </mxGeometry>
        </mxCell>
        <mxCell id="XsyiU6WNCSuXVEIbgxJn-6" value="Input Email" style="shape=parallelogram;perimeter=parallelogramPerimeter;whiteSpace=wrap;html=1;fixedSize=1;" vertex="1" parent="WIyWlLk6GJQsqaUBKTNV-1">
          <mxGeometry x="160" y="555" width="120" height="60" as="geometry" />
        </mxCell>
        <mxCell id="XsyiU6WNCSuXVEIbgxJn-9" value="" style="endArrow=classic;html=1;rounded=0;strokeColor=#FFFFFF;" edge="1" parent="WIyWlLk6GJQsqaUBKTNV-1">
          <mxGeometry width="50" height="50" relative="1" as="geometry">
            <mxPoint x="380" y="730" as="sourcePoint" />
            <mxPoint x="430" y="680" as="targetPoint" />
          </mxGeometry>
        </mxCell>
        <mxCell id="XsyiU6WNCSuXVEIbgxJn-10" value="" style="endArrow=classic;html=1;rounded=0;strokeColor=#FFFFFF;" edge="1" parent="WIyWlLk6GJQsqaUBKTNV-1">
          <mxGeometry width="50" height="50" relative="1" as="geometry">
            <mxPoint x="380" y="730" as="sourcePoint" />
            <mxPoint x="430" y="680" as="targetPoint" />
          </mxGeometry>
        </mxCell>
        <mxCell id="XsyiU6WNCSuXVEIbgxJn-12" value="" style="endArrow=classic;html=1;rounded=0;strokeColor=#FFFFFF;" edge="1" parent="WIyWlLk6GJQsqaUBKTNV-1">
          <mxGeometry width="50" height="50" relative="1" as="geometry">
            <mxPoint x="380" y="730" as="sourcePoint" />
            <mxPoint x="430" y="680" as="targetPoint" />
          </mxGeometry>
        </mxCell>
        <mxCell id="XsyiU6WNCSuXVEIbgxJn-17" value="" style="endArrow=classic;html=1;rounded=0;strokeColor=#000000;" edge="1" parent="WIyWlLk6GJQsqaUBKTNV-1">
          <mxGeometry width="50" height="50" relative="1" as="geometry">
            <mxPoint x="219.5" y="615" as="sourcePoint" />
            <mxPoint x="219.5" y="670" as="targetPoint" />
            <Array as="points">
              <mxPoint x="219.5" y="630" />
            </Array>
          </mxGeometry>
        </mxCell>
        <mxCell id="XsyiU6WNCSuXVEIbgxJn-18" value="Input Password" style="shape=parallelogram;perimeter=parallelogramPerimeter;whiteSpace=wrap;html=1;fixedSize=1;" vertex="1" parent="WIyWlLk6GJQsqaUBKTNV-1">
          <mxGeometry x="160" y="670" width="120" height="60" as="geometry" />
        </mxCell>
        <mxCell id="XsyiU6WNCSuXVEIbgxJn-19" value="" style="endArrow=classic;html=1;rounded=0;strokeColor=#000000;" edge="1" parent="WIyWlLk6GJQsqaUBKTNV-1">
          <mxGeometry width="50" height="50" relative="1" as="geometry">
            <mxPoint x="219.5" y="730" as="sourcePoint" />
            <mxPoint x="219.5" y="785" as="targetPoint" />
            <Array as="points">
              <mxPoint x="219.5" y="745" />
            </Array>
          </mxGeometry>
        </mxCell>
        <mxCell id="XsyiU6WNCSuXVEIbgxJn-20" value="Input Kode OTP" style="shape=parallelogram;perimeter=parallelogramPerimeter;whiteSpace=wrap;html=1;fixedSize=1;" vertex="1" parent="WIyWlLk6GJQsqaUBKTNV-1">
          <mxGeometry x="160" y="790" width="120" height="60" as="geometry" />
        </mxCell>
        <mxCell id="XsyiU6WNCSuXVEIbgxJn-21" value="" style="endArrow=classic;html=1;rounded=0;strokeColor=#000000;" edge="1" parent="WIyWlLk6GJQsqaUBKTNV-1">
          <mxGeometry width="50" height="50" relative="1" as="geometry">
            <mxPoint x="219.5" y="850" as="sourcePoint" />
            <mxPoint x="219.5" y="905" as="targetPoint" />
            <Array as="points">
              <mxPoint x="219.5" y="865" />
            </Array>
          </mxGeometry>
        </mxCell>
        <mxCell id="XsyiU6WNCSuXVEIbgxJn-22" value="Sudah?" style="strokeWidth=2;html=1;shape=mxgraph.flowchart.decision;whiteSpace=wrap;" vertex="1" parent="WIyWlLk6GJQsqaUBKTNV-1">
          <mxGeometry x="170" y="910" width="100" height="100" as="geometry" />
        </mxCell>
        <mxCell id="XsyiU6WNCSuXVEIbgxJn-30" value="" style="edgeStyle=elbowEdgeStyle;elbow=horizontal;endArrow=classic;html=1;rounded=0;strokeColor=#000000;exitX=0;exitY=0.5;exitDx=0;exitDy=0;exitPerimeter=0;entryX=0;entryY=0.5;entryDx=0;entryDy=0;" edge="1" parent="WIyWlLk6GJQsqaUBKTNV-1" source="XsyiU6WNCSuXVEIbgxJn-22" target="XsyiU6WNCSuXVEIbgxJn-4">
          <mxGeometry width="50" height="50" relative="1" as="geometry">
            <mxPoint x="110" y="960" as="sourcePoint" />
            <mxPoint x="160" y="910" as="targetPoint" />
            <Array as="points">
              <mxPoint x="80" y="910" />
            </Array>
          </mxGeometry>
        </mxCell>
        <mxCell id="XsyiU6WNCSuXVEIbgxJn-31" value="No" style="text;html=1;align=center;verticalAlign=middle;resizable=0;points=[];autosize=1;strokeColor=none;fillColor=none;" vertex="1" parent="WIyWlLk6GJQsqaUBKTNV-1">
          <mxGeometry x="120" y="930" width="40" height="30" as="geometry" />
        </mxCell>
        <mxCell id="XsyiU6WNCSuXVEIbgxJn-32" value="" style="edgeStyle=segmentEdgeStyle;endArrow=classic;html=1;rounded=0;strokeColor=#000000;exitX=1;exitY=0.5;exitDx=0;exitDy=0;exitPerimeter=0;entryX=0.57;entryY=1.057;entryDx=0;entryDy=0;entryPerimeter=0;" edge="1" parent="WIyWlLk6GJQsqaUBKTNV-1" source="XsyiU6WNCSuXVEIbgxJn-22" target="XsyiU6WNCSuXVEIbgxJn-43">
          <mxGeometry width="50" height="50" relative="1" as="geometry">
            <mxPoint x="390" y="960" as="sourcePoint" />
            <mxPoint x="390" y="380" as="targetPoint" />
            <Array as="points">
              <mxPoint x="320" y="960" />
              <mxPoint x="320" y="830" />
              <mxPoint x="388" y="830" />
            </Array>
          </mxGeometry>
        </mxCell>
        <mxCell id="XsyiU6WNCSuXVEIbgxJn-38" value="" style="rounded=0;html=1;jettySize=auto;orthogonalLoop=1;fontSize=11;endArrow=block;endFill=0;endSize=8;strokeWidth=1;shadow=0;labelBackgroundColor=none;edgeStyle=orthogonalEdgeStyle;entryX=0;entryY=0.5;entryDx=0;entryDy=0;exitX=1;exitY=0.5;exitDx=0;exitDy=0;" edge="1" parent="WIyWlLk6GJQsqaUBKTNV-1">
          <mxGeometry relative="1" as="geometry">
            <mxPoint x="440" y="330" as="sourcePoint" />
            <mxPoint x="490" y="330" as="targetPoint" />
            <Array as="points" />
          </mxGeometry>
        </mxCell>
        <mxCell id="XsyiU6WNCSuXVEIbgxJn-39" value="" style="rounded=0;html=1;jettySize=auto;orthogonalLoop=1;fontSize=11;endArrow=block;endFill=0;endSize=8;strokeWidth=1;shadow=0;labelBackgroundColor=none;edgeStyle=orthogonalEdgeStyle;entryX=0;entryY=0.5;entryDx=0;entryDy=0;exitX=1;exitY=0.5;exitDx=0;exitDy=0;" edge="1" parent="WIyWlLk6GJQsqaUBKTNV-1">
          <mxGeometry relative="1" as="geometry">
            <mxPoint x="610" y="329.5" as="sourcePoint" />
            <mxPoint x="660" y="329.5" as="targetPoint" />
            <Array as="points" />
          </mxGeometry>
        </mxCell>
        <mxCell id="XsyiU6WNCSuXVEIbgxJn-40" value="Yes" style="text;html=1;align=center;verticalAlign=middle;resizable=0;points=[];autosize=1;strokeColor=none;fillColor=none;" vertex="1" parent="WIyWlLk6GJQsqaUBKTNV-1">
          <mxGeometry x="280" y="930" width="40" height="30" as="geometry" />
        </mxCell>
        <mxCell id="XsyiU6WNCSuXVEIbgxJn-41" value="" style="rounded=0;html=1;jettySize=auto;orthogonalLoop=1;fontSize=11;endArrow=block;endFill=0;endSize=8;strokeWidth=1;shadow=0;labelBackgroundColor=none;edgeStyle=orthogonalEdgeStyle;" edge="1" parent="WIyWlLk6GJQsqaUBKTNV-1">
          <mxGeometry relative="1" as="geometry">
            <mxPoint x="719.5" y="350" as="sourcePoint" />
            <mxPoint x="719.5" y="400" as="targetPoint" />
            <Array as="points">
              <mxPoint x="719.5" y="380" />
              <mxPoint x="719.5" y="380" />
            </Array>
          </mxGeometry>
        </mxCell>
        <mxCell id="XsyiU6WNCSuXVEIbgxJn-43" value="Pilih &quot;Saya&quot;" style="rounded=0;whiteSpace=wrap;html=1;" vertex="1" parent="WIyWlLk6GJQsqaUBKTNV-1">
          <mxGeometry x="320" y="300" width="120" height="60" as="geometry" />
        </mxCell>
        <mxCell id="XsyiU6WNCSuXVEIbgxJn-44" value="Pilih &quot;Toko Saya" style="rounded=0;whiteSpace=wrap;html=1;" vertex="1" parent="WIyWlLk6GJQsqaUBKTNV-1">
          <mxGeometry x="490" y="300" width="120" height="60" as="geometry" />
        </mxCell>
        <mxCell id="XsyiU6WNCSuXVEIbgxJn-45" value="Pilih &quot;Perlu Dikirm&quot;" style="rounded=0;whiteSpace=wrap;html=1;" vertex="1" parent="WIyWlLk6GJQsqaUBKTNV-1">
          <mxGeometry x="660" y="300" width="120" height="60" as="geometry" />
        </mxCell>
        <mxCell id="XsyiU6WNCSuXVEIbgxJn-46" value="Kemas Produk&amp;nbsp;&lt;br&gt;yang akan&lt;br&gt;dikirim" style="shape=parallelogram;perimeter=parallelogramPerimeter;whiteSpace=wrap;html=1;fixedSize=1;" vertex="1" parent="WIyWlLk6GJQsqaUBKTNV-1">
          <mxGeometry x="650" y="400" width="140" height="60" as="geometry" />
        </mxCell>
        <mxCell id="XsyiU6WNCSuXVEIbgxJn-47" value="" style="rounded=0;html=1;jettySize=auto;orthogonalLoop=1;fontSize=11;endArrow=block;endFill=0;endSize=8;strokeWidth=1;shadow=0;labelBackgroundColor=none;edgeStyle=orthogonalEdgeStyle;" edge="1" parent="WIyWlLk6GJQsqaUBKTNV-1">
          <mxGeometry relative="1" as="geometry">
            <mxPoint x="719.5" y="460" as="sourcePoint" />
            <mxPoint x="719.5" y="510" as="targetPoint" />
            <Array as="points">
              <mxPoint x="719.5" y="490" />
              <mxPoint x="719.5" y="490" />
            </Array>
          </mxGeometry>
        </mxCell>
        <mxCell id="XsyiU6WNCSuXVEIbgxJn-48" value="Kirim Produk yang&lt;br&gt;sudah dikemas&lt;br&gt;ke kurir" style="shape=parallelogram;perimeter=parallelogramPerimeter;whiteSpace=wrap;html=1;fixedSize=1;" vertex="1" parent="WIyWlLk6GJQsqaUBKTNV-1">
          <mxGeometry x="650" y="510" width="130" height="60" as="geometry" />
        </mxCell>
        <mxCell id="XsyiU6WNCSuXVEIbgxJn-49" value="" style="rounded=0;html=1;jettySize=auto;orthogonalLoop=1;fontSize=11;endArrow=block;endFill=0;endSize=8;strokeWidth=1;shadow=0;labelBackgroundColor=none;edgeStyle=orthogonalEdgeStyle;" edge="1" parent="WIyWlLk6GJQsqaUBKTNV-1">
          <mxGeometry relative="1" as="geometry">
            <mxPoint x="719.5" y="570" as="sourcePoint" />
            <mxPoint x="719.5" y="620" as="targetPoint" />
            <Array as="points">
              <mxPoint x="719.5" y="600" />
              <mxPoint x="719.5" y="600" />
            </Array>
          </mxGeometry>
        </mxCell>
        <mxCell id="XsyiU6WNCSuXVEIbgxJn-50" value="Menunggu Konfirmasi&lt;br&gt;dari customer" style="rounded=0;whiteSpace=wrap;html=1;" vertex="1" parent="WIyWlLk6GJQsqaUBKTNV-1">
          <mxGeometry x="640" y="620" width="150" height="60" as="geometry" />
        </mxCell>
        <mxCell id="XsyiU6WNCSuXVEIbgxJn-51" value="" style="rounded=0;html=1;jettySize=auto;orthogonalLoop=1;fontSize=11;endArrow=block;endFill=0;endSize=8;strokeWidth=1;shadow=0;labelBackgroundColor=none;edgeStyle=orthogonalEdgeStyle;" edge="1" parent="WIyWlLk6GJQsqaUBKTNV-1">
          <mxGeometry relative="1" as="geometry">
            <mxPoint x="719.5" y="680" as="sourcePoint" />
            <mxPoint x="719.5" y="730" as="targetPoint" />
            <Array as="points">
              <mxPoint x="719.5" y="710" />
              <mxPoint x="719.5" y="710" />
            </Array>
          </mxGeometry>
        </mxCell>
        <mxCell id="XsyiU6WNCSuXVEIbgxJn-63" value="Uang masuk ke&lt;br&gt;wallet penjual" style="strokeWidth=2;html=1;shape=mxgraph.flowchart.decision;whiteSpace=wrap;" vertex="1" parent="WIyWlLk6GJQsqaUBKTNV-1">
          <mxGeometry x="665" y="730" width="110" height="110" as="geometry" />
        </mxCell>
        <mxCell id="XsyiU6WNCSuXVEIbgxJn-64" value="Yes" style="text;html=1;align=center;verticalAlign=middle;resizable=0;points=[];autosize=1;strokeColor=none;fillColor=none;" vertex="1" parent="WIyWlLk6GJQsqaUBKTNV-1">
          <mxGeometry x="720" y="685" width="40" height="30" as="geometry" />
        </mxCell>
        <mxCell id="XsyiU6WNCSuXVEIbgxJn-67" value="" style="edgeStyle=segmentEdgeStyle;endArrow=classic;html=1;rounded=0;strokeColor=#000000;exitX=0;exitY=0.5;exitDx=0;exitDy=0;exitPerimeter=0;entryX=0;entryY=0.5;entryDx=0;entryDy=0;" edge="1" parent="WIyWlLk6GJQsqaUBKTNV-1" source="XsyiU6WNCSuXVEIbgxJn-63" target="XsyiU6WNCSuXVEIbgxJn-50">
          <mxGeometry width="50" height="50" relative="1" as="geometry">
            <mxPoint x="615" y="790" as="sourcePoint" />
            <mxPoint x="600" y="640" as="targetPoint" />
            <Array as="points">
              <mxPoint x="600" y="785" />
              <mxPoint x="600" y="650" />
            </Array>
          </mxGeometry>
        </mxCell>
        <mxCell id="XsyiU6WNCSuXVEIbgxJn-68" value="No" style="text;html=1;align=center;verticalAlign=middle;resizable=0;points=[];autosize=1;strokeColor=none;fillColor=none;" vertex="1" parent="WIyWlLk6GJQsqaUBKTNV-1">
          <mxGeometry x="620" y="755" width="40" height="30" as="geometry" />
        </mxCell>
        <mxCell id="XsyiU6WNCSuXVEIbgxJn-69" value="End" style="rounded=1;whiteSpace=wrap;html=1;" vertex="1" parent="WIyWlLk6GJQsqaUBKTNV-1">
          <mxGeometry x="660" y="890" width="120" height="60" as="geometry" />
        </mxCell>
        <mxCell id="XsyiU6WNCSuXVEIbgxJn-70" value="" style="rounded=0;html=1;jettySize=auto;orthogonalLoop=1;fontSize=11;endArrow=block;endFill=0;endSize=8;strokeWidth=1;shadow=0;labelBackgroundColor=none;edgeStyle=orthogonalEdgeStyle;" edge="1" parent="WIyWlLk6GJQsqaUBKTNV-1">
          <mxGeometry relative="1" as="geometry">
            <mxPoint x="720" y="840" as="sourcePoint" />
            <mxPoint x="720" y="890" as="targetPoint" />
            <Array as="points">
              <mxPoint x="720" y="870" />
              <mxPoint x="720" y="870" />
            </Array>
          </mxGeometry>
        </mxCell>
      </root>
    </mxGraphModel>
  </diagram>
</mxfile>
